<svg aria-hidden="true" style="position: absolute; width: 0; height: 0; overflow: hidden;" version="1.1" xmlns="http://www.w3.org/2000/svg" xmlns:xlink="http://www.w3.org/1999/xlink">
<defs>
<symbol id="icon-noresults" viewBox="0 0 32 32">
<path d="M14.52 32c-0.138-0-0.25-0.112-0.25-0.25 0-0.035 0.007-0.069 0.020-0.099l-0.001 0.002c0.079-0.182 0.125-0.393 0.125-0.615 0-0.484-0.217-0.917-0.56-1.208l-0.002-0.002c-0.134-0.112-0.29-0.203-0.459-0.266l-0.011-0.004c-0.097-0.036-0.165-0.128-0.165-0.235 0-0.012 0.001-0.024 0.003-0.036l-0 0.001c0.012-0.081 0.019-0.174 0.019-0.27 0-1.041-0.844-1.885-1.885-1.885-0.442 0-0.849 0.152-1.171 0.408l0.004-0.003c-0.042 0.034-0.096 0.054-0.155 0.054-0.071 0-0.134-0.029-0.18-0.076l-0-0c-0.041-0.043-0.083-0.083-0.128-0.12l-0.002-0.002c-0.271-0.228-0.623-0.366-1.007-0.366-0.16 0-0.315 0.024-0.461 0.069l0.011-0.003c-0.021 0.007-0.046 0.010-0.071 0.010-0.087 0-0.164-0.044-0.208-0.112l-0.001-0.001c-0.054-0.085-0.117-0.158-0.189-0.221l-0.001-0.001c-0.172-0.152-0.399-0.245-0.648-0.245-0.363 0-0.68 0.197-0.849 0.49l-0.003 0.005c-0.044 0.074-0.124 0.123-0.215 0.123-0.052 0-0.101-0.016-0.141-0.043l0.001 0.001c-0.090-0.061-0.202-0.098-0.321-0.098-0.051 0-0.101 0.007-0.148 0.019l0.004-0.001c-0.024 0.008-0.051 0.013-0.080 0.013s-0.056-0.005-0.082-0.014l0.002 0.001-0.082-0.035c-0.089-0.039-0.151-0.127-0.151-0.229 0-0.076 0.034-0.144 0.088-0.19l0-0 0.025-0.023c0.032-0.035 0.051-0.081 0.051-0.133s-0.019-0.098-0.051-0.133l0 0c-0.043-0.045-0.069-0.106-0.069-0.173 0-0.076 0.034-0.143 0.087-0.189l0-0c0.096-0.077 0.157-0.195 0.157-0.326s-0.061-0.249-0.156-0.326l-0.001-0.001c-0.032-0.025-0.068-0.046-0.107-0.061l-0.003-0.001c-0.090-0.039-0.151-0.127-0.151-0.23 0-0.007 0-0.014 0.001-0.021l-0 0.001c0.003-0.026 0.005-0.056 0.005-0.087 0-0.405-0.328-0.733-0.732-0.733-0.047 0-0.093 0.004-0.137 0.013l0.005-0.001c-0.013 0.002-0.027 0.004-0.042 0.004-0.105 0-0.195-0.065-0.232-0.157l-0.001-0.002c-0.103-0.276-0.334-0.483-0.619-0.549l-0.006-0.001c-0.096-0.024-0.17-0.101-0.187-0.198l-0-0.002c-0.030-0.179-0.12-0.332-0.249-0.442l-0.001-0.001c-0.128-0.105-0.293-0.168-0.474-0.168-0.137 0-0.265 0.037-0.375 0.1l0.004-0.002c-0.036 0.021-0.079 0.034-0.126 0.034-0.091 0-0.17-0.048-0.214-0.12l-0.001-0.001c-0.052-0.088-0.146-0.146-0.253-0.146-0.081 0-0.154 0.033-0.207 0.086v0c-0.045 0.043-0.105 0.069-0.172 0.069-0.046 0-0.089-0.013-0.127-0.034l0.001 0.001c-0.028-0.017-0.063-0.026-0.099-0.026-0.060 0-0.114 0.027-0.151 0.069l-0 0c-0.028 0.034-0.045 0.078-0.045 0.126 0 0.025 0.005 0.049 0.013 0.071l-0-0.001c0 0.005 0.001 0.011 0.001 0.017s-0 0.012-0.001 0.018l0-0.001c0 0.007 0.001 0.015 0.001 0.023s-0 0.016-0.001 0.024l0-0.001c0.002 0.012 0.003 0.025 0.003 0.039 0 0.138-0.112 0.25-0.25 0.25-0.108 0-0.2-0.068-0.235-0.164l-0.001-0.002c-0.007-0.020-0.012-0.042-0.015-0.066l-0-0.002c-0.019-0.061-0.031-0.131-0.031-0.204 0-0.384 0.311-0.695 0.695-0.695 0.068 0 0.134 0.010 0.196 0.028l-0.005-0.001c0.119-0.074 0.263-0.118 0.418-0.118 0.195 0 0.374 0.070 0.513 0.187l-0.001-0.001 0.025 0.020c0.128-0.049 0.275-0.078 0.43-0.078 0.551 0 1.018 0.364 1.173 0.864l0.002 0.009c0.325 0.113 0.587 0.337 0.746 0.626l0.004 0.007c0.006-0 0.013-0 0.020-0 0.669 0 1.213 0.534 1.23 1.199l0 0.002 0.077 0.058c0.204 0.172 0.333 0.427 0.333 0.713 0 0.201-0.064 0.387-0.173 0.54l0.002-0.003c0.039 0.085 0.062 0.184 0.062 0.289 0 0.036-0.003 0.071-0.008 0.105l0-0.004c0.098 0.011 0.188 0.033 0.272 0.065l-0.007-0.002c0.277-0.33 0.69-0.538 1.151-0.538 0.368 0 0.705 0.133 0.966 0.353l-0.002-0.002c0.067 0.057 0.127 0.118 0.18 0.185l0.002 0.003c0.126-0.027 0.272-0.043 0.421-0.043 0.508 0 0.972 0.183 1.332 0.486l-0.003-0.003c0.367-0.239 0.815-0.381 1.297-0.381 0.585 0 1.12 0.209 1.536 0.557l-0.004-0.003c0.524 0.438 0.854 1.091 0.854 1.822 0 0.051-0.002 0.102-0.005 0.152l0-0.007c0.167 0.080 0.311 0.173 0.441 0.283l-0.003-0.003c0.454 0.385 0.74 0.956 0.74 1.594 0 0.294-0.061 0.573-0.17 0.827l0.005-0.014c-0.040 0.088-0.127 0.147-0.227 0.148h-0zM22.3 32c-0.085-0-0.159-0.042-0.204-0.107l-0.001-0.001c-0.147-0.209-0.234-0.468-0.234-0.747 0-0.722 0.585-1.308 1.307-1.31h0c0.009-0 0.019-0 0.029-0 0.062 0 0.123 0.007 0.182 0.019l-0.006-0.001c0.328-0.403 0.822-0.66 1.377-0.665h0.001c0.274-0.834 1.041-1.428 1.949-1.438h0.001c0.242 0.004 0.474 0.045 0.691 0.117l-0.016-0.005c0.258-0.509 0.778-0.852 1.377-0.852h0c0.002 0 0.004 0 0.006 0 0.128 0 0.253 0.016 0.372 0.047l-0.010-0.002c0.045-0.575 0.523-1.024 1.105-1.025h0c0.324 0 0.615 0.141 0.817 0.364l0.001 0.001c0.143-0.11 0.324-0.176 0.52-0.176 0.099 0 0.194 0.017 0.283 0.048l-0.006-0.002c0.093 0.038 0.157 0.128 0.157 0.233 0 0.138-0.112 0.251-0.251 0.251-0.034 0-0.066-0.007-0.095-0.019l0.002 0.001c-0.070-0.027-0.2-0.038-0.515 0.212-0.042 0.034-0.097 0.054-0.156 0.054-0.096 0-0.179-0.054-0.221-0.133l-0.001-0.001c-0.103-0.197-0.304-0.329-0.537-0.33h-0c-0.001 0-0.002 0-0.003 0-0.334 0-0.605 0.271-0.605 0.605 0 0.081 0.016 0.158 0.045 0.229l-0.001-0.004c0.011 0.027 0.017 0.058 0.017 0.091 0 0.138-0.112 0.25-0.25 0.25-0.048 0-0.093-0.014-0.131-0.037l0.001 0.001c-0.154-0.096-0.34-0.154-0.54-0.155h-0c-0.471 0.002-0.868 0.314-0.998 0.743l-0.002 0.007c-0.032 0.104-0.127 0.178-0.239 0.178-0.040 0-0.078-0.009-0.112-0.026l0.001 0.001c-0.202-0.104-0.442-0.165-0.695-0.165h-0c-0.748 0.006-1.371 0.535-1.521 1.24l-0.002 0.010c-0.024 0.114-0.125 0.199-0.245 0.199-0.010 0-0.019-0.001-0.029-0.002l0.001 0h-0.145c-0.449 0.002-0.844 0.232-1.075 0.58l-0.003 0.005c-0.045 0.068-0.122 0.113-0.209 0.113-0.025 0-0.050-0.004-0.073-0.011l0.002 0c-0.070-0.022-0.15-0.036-0.233-0.040l-0.002-0c-0.002 0-0.004-0-0.006-0-0.447 0-0.81 0.363-0.81 0.81 0 0.169 0.052 0.326 0.14 0.455l-0.002-0.003c0.028 0.040 0.045 0.089 0.045 0.143 0 0.136-0.109 0.247-0.244 0.25h-0z"></path>
<path d="M7.63 31.135c-0.111-0.027-0.192-0.126-0.192-0.243 0-0.021 0.003-0.041 0.008-0.061l-0 0.002c0.027-0.111 0.126-0.192 0.243-0.192 0.020 0 0.040 0.002 0.059 0.007l-0.002-0c0.111 0.027 0.192 0.126 0.192 0.243 0 0.021-0.003 0.041-0.008 0.061l0-0.002c-0.027 0.111-0.126 0.193-0.243 0.193-0.002 0-0.005-0-0.007-0h0c-0.018-0.001-0.035-0.004-0.052-0.008l0.002 0zM7.918 29.918c-0.111-0.027-0.192-0.126-0.192-0.243 0-0.020 0.002-0.040 0.007-0.059l-0 0.002c0.027-0.111 0.126-0.192 0.243-0.192 0.021 0 0.041 0.003 0.061 0.008l-0.002-0c0.111 0.027 0.192 0.126 0.192 0.243 0 0.020-0.002 0.040-0.007 0.059l0-0.002c-0.027 0.111-0.126 0.193-0.243 0.193-0.002 0-0.005-0-0.007-0h0c-0.019-0.001-0.037-0.003-0.054-0.008l0.002 0zM8.207 28.703c-0.111-0.027-0.192-0.126-0.192-0.243 0-0.020 0.002-0.040 0.007-0.059l-0 0.002c0.026-0.112 0.125-0.195 0.244-0.195 0.021 0 0.041 0.003 0.060 0.007l-0.002-0c0.111 0.027 0.192 0.126 0.192 0.243 0 0.021-0.003 0.041-0.008 0.061l0-0.002c-0.027 0.111-0.126 0.193-0.243 0.193-0.002 0-0.005-0-0.007-0h0zM8.5 27.488c-0.111-0.027-0.192-0.126-0.192-0.243 0-0.021 0.003-0.041 0.008-0.061l-0 0.002c0.027-0.111 0.126-0.192 0.243-0.192 0.020 0 0.040 0.002 0.059 0.007l-0.002-0c0.112 0.026 0.194 0.125 0.194 0.244 0 0.021-0.003 0.041-0.007 0.060l0-0.002c-0.028 0.11-0.126 0.19-0.243 0.19-0.003 0-0.005-0-0.008-0h0zM8.79 26.27c-0.111-0.027-0.192-0.126-0.192-0.243 0-0.020 0.002-0.040 0.007-0.059l-0 0.002c0.027-0.111 0.126-0.192 0.243-0.192 0.020 0 0.040 0.002 0.059 0.007l-0.002-0c0.111 0.027 0.192 0.126 0.192 0.243 0 0.020-0.002 0.040-0.007 0.059l0-0.002c-0.027 0.111-0.126 0.193-0.243 0.193-0.002 0-0.005-0-0.007-0h0c-0.019-0.001-0.037-0.003-0.054-0.008l0.002 0zM9.080 25.055c-0.113-0.026-0.195-0.125-0.195-0.244 0-0.022 0.003-0.043 0.008-0.063l-0 0.002c0.027-0.111 0.126-0.192 0.243-0.192 0.020 0 0.040 0.002 0.059 0.007l-0.002-0c0.111 0.027 0.192 0.126 0.192 0.243 0 0.021-0.003 0.041-0.008 0.061l0-0.002c-0.027 0.111-0.126 0.193-0.243 0.193-0.002 0-0.005-0-0.007-0h0c-0 0-0 0-0 0-0.018 0-0.035-0.002-0.051-0.005l0.002 0zM9.37 23.837c-0.112-0.026-0.194-0.125-0.194-0.244 0-0.020 0.002-0.039 0.007-0.058l-0 0.002c0.027-0.111 0.126-0.192 0.243-0.192 0.021 0 0.041 0.003 0.061 0.008l-0.002-0c0.111 0.027 0.192 0.126 0.192 0.243 0 0.020-0.002 0.040-0.007 0.059l0-0.002c-0.027 0.111-0.126 0.193-0.243 0.193-0.002 0-0.005-0-0.007-0h0c-0.019-0.001-0.037-0.003-0.054-0.008l0.002 0zM9.658 22.622c-0.111-0.027-0.192-0.126-0.192-0.243 0-0.020 0.002-0.040 0.007-0.059l-0 0.002c0.026-0.112 0.125-0.195 0.244-0.195 0.021 0 0.041 0.003 0.060 0.007l-0.002-0c0.111 0.027 0.192 0.126 0.192 0.243 0 0.021-0.003 0.041-0.008 0.061l0-0.002c-0.027 0.111-0.126 0.193-0.243 0.193-0.002 0-0.005-0-0.007-0h0c-0.020-0-0.039-0.003-0.057-0.008l0.002 0zM9.947 21.407c-0.117-0.022-0.204-0.124-0.204-0.246 0-0.020 0.002-0.040 0.007-0.058l-0 0.002c0.027-0.111 0.126-0.192 0.243-0.192 0.020 0 0.040 0.002 0.059 0.007l-0.002-0c0.118 0.021 0.206 0.123 0.206 0.246 0 0.020-0.002 0.039-0.007 0.058l0-0.002c-0.028 0.11-0.126 0.19-0.243 0.19-0.003 0-0.005-0-0.008-0h0c-0.002 0-0.003 0-0.005 0-0.018 0-0.035-0.002-0.052-0.005l0.002 0zM10.238 20.19c-0.111-0.027-0.192-0.126-0.192-0.243 0-0.020 0.002-0.040 0.007-0.059l-0 0.002c0.027-0.111 0.126-0.192 0.243-0.192 0.020 0 0.040 0.002 0.059 0.007l-0.002-0c0.111 0.027 0.192 0.126 0.192 0.243 0 0.020-0.002 0.040-0.007 0.059l0-0.002c-0.027 0.111-0.126 0.193-0.243 0.193-0.002 0-0.005-0-0.007-0h0zM10.525 18.975c-0.111-0.027-0.192-0.126-0.192-0.243 0-0.021 0.003-0.041 0.008-0.061l-0 0.002c0.027-0.111 0.126-0.192 0.243-0.192 0.020 0 0.040 0.002 0.059 0.007l-0.002-0c0.111 0.027 0.192 0.126 0.192 0.243 0 0.021-0.003 0.041-0.008 0.061l0-0.002c-0.027 0.111-0.126 0.193-0.243 0.193-0.002 0-0.005-0-0.007-0h0c-0.018-0.001-0.035-0.004-0.052-0.008l0.002 0zM10.815 17.75c-0.111-0.027-0.192-0.126-0.192-0.243 0-0.020 0.002-0.040 0.007-0.059l-0 0.002c0.027-0.111 0.126-0.192 0.243-0.192 0.020 0 0.040 0.002 0.059 0.007l-0.002-0c0.111 0.027 0.192 0.126 0.192 0.243 0 0.020-0.002 0.040-0.007 0.059l0-0.002c-0.027 0.111-0.126 0.193-0.243 0.193-0.002 0-0.005-0-0.007-0h0c-0.018-0.001-0.035-0.004-0.052-0.008l0.002 0zM11.102 16.535c-0.111-0.027-0.192-0.126-0.192-0.243 0-0.020 0.002-0.040 0.007-0.059l-0 0.002c0.026-0.112 0.125-0.195 0.244-0.195 0.021 0 0.041 0.003 0.060 0.007l-0.002-0c0.111 0.027 0.192 0.126 0.192 0.243 0 0.021-0.003 0.041-0.008 0.061l0-0.002c-0.027 0.111-0.126 0.193-0.243 0.193-0.002 0-0.005-0-0.007-0h0c-0.008 0.001-0.017 0.001-0.026 0.001s-0.018-0-0.027-0.001l0.001 0zM11.393 15.32c-0.111-0.027-0.192-0.126-0.192-0.243 0-0.021 0.003-0.041 0.008-0.061l-0 0.002c0.030-0.106 0.127-0.183 0.241-0.183 0.018 0 0.036 0.002 0.053 0.006l-0.002-0c0.111 0.027 0.192 0.126 0.192 0.243 0 0.021-0.003 0.041-0.008 0.061l0-0.002c-0.028 0.11-0.126 0.19-0.243 0.19-0.003 0-0.005-0-0.008-0h0zM11.682 14.102c-0.111-0.027-0.192-0.126-0.192-0.243 0-0.020 0.002-0.040 0.007-0.059l-0 0.002c0.027-0.111 0.126-0.192 0.243-0.192 0.020 0 0.040 0.002 0.059 0.007l-0.002-0c0.112 0.026 0.194 0.125 0.194 0.244 0 0.020-0.002 0.039-0.007 0.058l0-0.002c-0.027 0.111-0.126 0.193-0.243 0.193-0.002 0-0.005-0-0.007-0h0zM11.973 12.887c-0.111-0.027-0.192-0.126-0.192-0.243 0-0.021 0.003-0.041 0.008-0.061l-0 0.002c0.027-0.111 0.126-0.192 0.243-0.192 0.020 0 0.040 0.002 0.059 0.007l-0.002-0c0.112 0.026 0.194 0.125 0.194 0.244 0 0.021-0.003 0.041-0.007 0.060l0-0.002c-0.028 0.11-0.126 0.19-0.243 0.19-0.003 0-0.005-0-0.008-0h0c-0.011 0.002-0.025 0.003-0.038 0.003-0.005 0-0.010-0-0.015-0l0.001 0zM12.25 11.678c-0.111-0.027-0.192-0.126-0.192-0.243 0-0.020 0.002-0.040 0.007-0.059l-0 0.002c0.027-0.111 0.126-0.192 0.243-0.192 0.020 0 0.040 0.002 0.059 0.007l-0.002-0c0.111 0.027 0.192 0.126 0.192 0.243 0 0.020-0.002 0.040-0.007 0.059l0-0.002c-0.027 0.111-0.126 0.193-0.243 0.193-0.002 0-0.005-0-0.007-0h0c-0.018-0.001-0.035-0.004-0.052-0.008l0.002 0zM12.537 10.463c-0.111-0.027-0.192-0.126-0.192-0.243 0-0.020 0.002-0.040 0.007-0.059l-0 0.002c0.026-0.112 0.125-0.194 0.244-0.194 0.021 0 0.041 0.003 0.060 0.007l-0.002-0c0.111 0.027 0.192 0.126 0.192 0.243 0 0.021-0.003 0.041-0.008 0.061l0-0.002c-0.027 0.111-0.126 0.193-0.243 0.193-0.002 0-0.005-0-0.007-0h0c-0.015-0.002-0.029-0.004-0.042-0.008l0.002 0zM24.065 30.95c-0.005-0.018-0.007-0.038-0.007-0.059 0-0.118 0.081-0.216 0.19-0.243l0.002-0c0.018-0.005 0.038-0.007 0.059-0.007 0.118 0 0.216 0.081 0.243 0.19l0 0.002c0.004 0.018 0.007 0.038 0.007 0.059 0 0.118-0.082 0.218-0.193 0.243l-0.002 0c-0.009 0.001-0.019 0.002-0.029 0.002s-0.020-0.001-0.030-0.002l0.001 0c-0 0-0.001 0-0.001 0-0.115 0-0.212-0.078-0.241-0.183l-0-0.002zM23.775 29.733c-0.004-0.017-0.007-0.037-0.007-0.057 0-0.117 0.081-0.216 0.19-0.243l0.002-0c0.018-0.005 0.038-0.007 0.059-0.007 0.118 0 0.216 0.081 0.243 0.19l0 0.002c0.005 0.018 0.007 0.038 0.007 0.059 0 0.118-0.081 0.216-0.19 0.243l-0.002 0h-0.058c-0.001 0-0.002 0-0.003 0-0.116 0-0.213-0.079-0.242-0.186l-0-0.002zM23.485 28.517c-0.004-0.018-0.007-0.038-0.007-0.059 0-0.118 0.082-0.218 0.193-0.243l0.002-0c0.017-0.004 0.036-0.006 0.056-0.006 0.118 0 0.217 0.082 0.243 0.192l0 0.002c0.004 0.017 0.007 0.037 0.007 0.057 0 0.117-0.081 0.216-0.19 0.243l-0.002 0h-0.058c-0.001 0-0.002 0-0.004 0-0.115 0-0.212-0.078-0.241-0.183l-0-0.002zM23.198 27.3c-0.004-0.017-0.007-0.037-0.007-0.057 0-0.117 0.081-0.216 0.19-0.243l0.002-0c0.017-0.004 0.037-0.007 0.057-0.007 0.117 0 0.216 0.081 0.243 0.19l0 0.002c0.005 0.018 0.007 0.038 0.007 0.059 0 0.118-0.081 0.216-0.19 0.243l-0.002 0h-0.058c-0 0-0 0-0 0-0.116 0-0.213-0.079-0.242-0.186l-0-0.002zM22.907 26.085c-0.004-0.017-0.007-0.037-0.007-0.057 0-0.117 0.081-0.216 0.19-0.243l0.002-0c0.017-0.004 0.037-0.007 0.057-0.007 0.117 0 0.216 0.081 0.243 0.19l0 0.002c0.004 0.017 0.007 0.037 0.007 0.057 0 0.117-0.081 0.216-0.19 0.243l-0.002 0c-0.009 0.001-0.019 0.002-0.029 0.002s-0.020-0.001-0.030-0.002l0.001 0c-0 0-0.001 0-0.001 0-0.115 0-0.212-0.078-0.241-0.183l-0-0.002zM22.617 24.87c-0.005-0.018-0.007-0.038-0.007-0.059 0-0.118 0.081-0.216 0.19-0.243l0.002-0c0.018-0.005 0.038-0.007 0.059-0.007 0.118 0 0.216 0.081 0.243 0.19l0 0.002c0.004 0.018 0.007 0.038 0.007 0.059 0 0.118-0.082 0.218-0.193 0.243l-0.002 0c-0.009 0.001-0.019 0.002-0.029 0.002s-0.020-0.001-0.030-0.002l0.001 0c-0 0-0.001 0-0.001 0-0.115 0-0.212-0.078-0.241-0.183l-0-0.002zM22.328 23.652c-0.004-0.017-0.007-0.037-0.007-0.057 0-0.117 0.081-0.216 0.19-0.243l0.002-0c0.018-0.005 0.038-0.007 0.059-0.007 0.118 0 0.216 0.081 0.243 0.19l0 0.002c0.004 0.017 0.007 0.037 0.007 0.057 0 0.117-0.081 0.216-0.19 0.243l-0.002 0c-0.009 0.001-0.019 0.002-0.030 0.002s-0.021-0.001-0.031-0.002l0.001 0c-0 0-0.001 0-0.001 0-0.115 0-0.212-0.078-0.241-0.183l-0-0.002zM22.038 22.438c-0.005-0.018-0.007-0.038-0.007-0.059 0-0.118 0.081-0.216 0.19-0.243l0.002-0c0.018-0.004 0.038-0.007 0.059-0.007 0.118 0 0.218 0.082 0.243 0.193l0 0.002c0.004 0.017 0.007 0.037 0.007 0.057 0 0.117-0.081 0.216-0.19 0.243l-0.002 0c-0.009 0.001-0.019 0.002-0.030 0.002s-0.021-0.001-0.031-0.002l0.001 0c-0 0-0.001 0-0.001 0-0.115 0-0.212-0.078-0.241-0.183l-0-0.002zM21.75 21.223c-0.004-0.018-0.007-0.038-0.007-0.059 0-0.118 0.082-0.218 0.193-0.243l0.002-0c0.017-0.004 0.037-0.007 0.057-0.007 0.117 0 0.216 0.081 0.243 0.19l0 0.002c0.005 0.018 0.007 0.038 0.007 0.059 0 0.118-0.081 0.216-0.19 0.243l-0.002 0c-0.009 0.001-0.019 0.002-0.029 0.002s-0.020-0.001-0.030-0.002l0.001 0c-0.001 0-0.002 0-0.004 0-0.115 0-0.212-0.078-0.241-0.183l-0-0.002zM21.46 20c-0.004-0.017-0.007-0.037-0.007-0.057 0-0.117 0.081-0.216 0.19-0.243l0.002-0c0.017-0.004 0.037-0.007 0.057-0.007 0.117 0 0.216 0.081 0.243 0.19l0 0.002c0.004 0.017 0.007 0.037 0.007 0.057 0 0.117-0.081 0.216-0.19 0.243l-0.002 0c-0.009 0.001-0.019 0.002-0.029 0.002s-0.020-0.001-0.030-0.002l0.001 0c-0 0-0.001 0-0.001 0-0.115 0-0.212-0.078-0.241-0.183l-0-0.002zM21.17 18.785c-0.005-0.018-0.007-0.038-0.007-0.059 0-0.118 0.081-0.216 0.19-0.243l0.002-0c0.018-0.005 0.038-0.007 0.059-0.007 0.118 0 0.216 0.081 0.243 0.19l0 0.002c0.004 0.018 0.007 0.038 0.007 0.059 0 0.118-0.082 0.218-0.193 0.243l-0.002 0c-0.009 0.001-0.019 0.002-0.029 0.002s-0.020-0.001-0.030-0.002l0.001 0c-0.001 0-0.002 0-0.003 0-0.113 0-0.209-0.075-0.24-0.178l-0-0.002zM20.88 17.567c-0.004-0.017-0.007-0.037-0.007-0.057 0-0.117 0.081-0.216 0.19-0.243l0.002-0c0.018-0.005 0.038-0.007 0.059-0.007 0.118 0 0.216 0.081 0.243 0.19l0 0.002c0.004 0.017 0.007 0.037 0.007 0.057 0 0.117-0.081 0.216-0.19 0.243l-0.002 0c-0.009 0.001-0.019 0.002-0.030 0.002s-0.021-0.001-0.031-0.002l0.001 0c-0.001 0-0.002 0-0.003 0-0.113 0-0.209-0.075-0.24-0.178l-0-0.002zM20.59 16.352c-0.004-0.017-0.007-0.037-0.007-0.057 0-0.117 0.081-0.216 0.19-0.243l0.002-0c0.018-0.005 0.039-0.007 0.060-0.007 0.117 0 0.215 0.080 0.242 0.188l0 0.002c0.005 0.018 0.007 0.038 0.007 0.059 0 0.118-0.081 0.216-0.19 0.243l-0.002 0h-0.058c-0.001 0-0.003 0-0.005 0-0.113 0-0.209-0.075-0.24-0.178l-0-0.002zM20.3 15.143c-0.004-0.017-0.006-0.036-0.006-0.056 0-0.123 0.088-0.225 0.205-0.246l0.002-0c0.017-0.004 0.037-0.007 0.057-0.007 0.117 0 0.216 0.081 0.243 0.19l0 0.002c0.005 0.018 0.007 0.038 0.007 0.059 0 0.118-0.081 0.216-0.19 0.243l-0.002 0c-0.009 0.001-0.019 0.002-0.029 0.002s-0.020-0.001-0.030-0.002l0.001 0c-0.005 0-0.010 0.001-0.016 0.001-0.115 0-0.212-0.078-0.241-0.184l-0-0.002zM20 13.925c-0.004-0.017-0.007-0.037-0.007-0.057 0-0.117 0.081-0.216 0.19-0.243l0.002-0c0.017-0.004 0.037-0.007 0.057-0.007 0.117 0 0.216 0.081 0.243 0.19l0 0.002c0.004 0.017 0.007 0.037 0.007 0.057 0 0.117-0.081 0.216-0.19 0.243l-0.002 0c-0.009 0.001-0.019 0.002-0.029 0.002s-0.020-0.001-0.030-0.002l0.001 0c-0 0-0.001 0-0.001 0-0.115 0-0.212-0.078-0.241-0.183l-0-0.002zM19.71 12.71c-0.005-0.018-0.007-0.038-0.007-0.059 0-0.118 0.081-0.216 0.19-0.243l0.002-0c0.017-0.004 0.037-0.007 0.057-0.007 0.117 0 0.216 0.081 0.243 0.19l0 0.002c0.005 0.018 0.007 0.038 0.007 0.059 0 0.118-0.081 0.216-0.19 0.243l-0.002 0c-0.009 0.001-0.019 0.002-0.029 0.002s-0.020-0.001-0.030-0.002l0.001 0c-0.11-0.005-0.201-0.081-0.23-0.183l-0-0.002zM19.433 11.5c-0.004-0.017-0.007-0.037-0.007-0.057 0-0.117 0.081-0.216 0.19-0.243l0.002-0c0.018-0.005 0.038-0.007 0.059-0.007 0.118 0 0.216 0.081 0.243 0.19l0 0.002c0.004 0.017 0.006 0.036 0.006 0.056 0 0.118-0.082 0.217-0.192 0.243l-0.002 0c-0.009 0.001-0.019 0.002-0.029 0.002s-0.020-0.001-0.030-0.002l0.001 0c-0 0-0.001 0-0.001 0-0.115 0-0.212-0.078-0.241-0.183l-0-0.002zM19.142 10.285c-0.005-0.018-0.007-0.038-0.007-0.059 0-0.118 0.081-0.216 0.19-0.243l0.002-0c0.018-0.004 0.038-0.007 0.059-0.007 0.118 0 0.218 0.082 0.243 0.193l0 0.002c0.004 0.017 0.007 0.037 0.007 0.057 0 0.117-0.081 0.216-0.19 0.243l-0.002 0h-0.058c-0 0-0.001 0-0.002 0-0.118 0-0.216-0.081-0.243-0.191l-0-0.002zM21.27 27.628l-0.27-1.32-2.060-10.25c-0.054-0.261-0.281-0.454-0.554-0.454-0.039 0-0.078 0.004-0.115 0.012l0.004-0.001-5.9 1.175c-0.261 0.054-0.454 0.281-0.454 0.554 0 0.039 0.004 0.078 0.012 0.115l-0.001-0.004 2.318 11.58c0.054 0.261 0.281 0.454 0.554 0.454 0.039 0 0.078-0.004 0.115-0.012l-0.004 0.001 5.905-1.185c0.261-0.054 0.454-0.281 0.454-0.554 0-0.039-0.004-0.078-0.012-0.115l0.001 0.004zM12.432 17.308c0.009-0.014 0.023-0.024 0.040-0.027l0-0 5.905-1.185c0.031 0.001 0.057 0.023 0.062 0.052l0 0 2 10.012-6.035 1.188-2-10c0.004-0.017 0.014-0.031 0.027-0.040l0-0zM20.77 27.773c-0.009 0.014-0.023 0.024-0.040 0.027l-0 0-5.905 1.188c-0.003 0-0.006 0.001-0.010 0.001-0.031 0-0.058-0.021-0.065-0.050l-0.22-1.1 6.035-1.188 0.218 1.078c0 0.002 0 0.005 0 0.007 0 0.014-0.005 0.028-0.013 0.038l0-0z"></path>
<path d="M17.738 27.547c-0.022-0.006-0.048-0.010-0.075-0.010-0.156 0-0.282 0.126-0.282 0.282s0.126 0.282 0.282 0.282c0.129 0 0.238-0.087 0.272-0.205l0-0.002c0.006-0.023 0.010-0.048 0.010-0.075 0-0.129-0.087-0.238-0.206-0.272l-0.002-0zM15.085 17.39h0.050l0.832-0.168c0.118-0.024 0.206-0.127 0.206-0.25 0-0.141-0.114-0.255-0.255-0.255-0.017 0-0.034 0.002-0.050 0.005l0.002-0-0.832 0.168c-0.128 0.013-0.226 0.12-0.226 0.25 0 0.139 0.113 0.251 0.251 0.251 0.009 0 0.018-0 0.026-0.001l-0.001 0zM14.595 23.188l0.405-0.6 0.598 0.413c0.041 0.031 0.094 0.050 0.15 0.050 0.138 0 0.25-0.112 0.25-0.25 0-0.091-0.049-0.171-0.122-0.215l-0.001-0.001-0.6-0.402 0.402-0.6c0.028-0.041 0.045-0.091 0.045-0.145 0-0.143-0.116-0.258-0.258-0.258-0.089 0-0.167 0.045-0.213 0.112l-0.001 0.001-0.402 0.6-0.598-0.392c-0.041-0.031-0.094-0.050-0.15-0.050-0.138 0-0.25 0.112-0.25 0.25 0 0.091 0.049 0.171 0.122 0.215l0.001 0.001 0.6 0.402-0.402 0.6c-0.022 0.036-0.035 0.080-0.035 0.127 0 0.138 0.112 0.25 0.25 0.25 0.081 0 0.154-0.039 0.199-0.099l0-0.001zM17.725 21.688l-0.402 0.6c-0.026 0.039-0.041 0.087-0.041 0.139 0 0.141 0.114 0.255 0.255 0.255 0.089 0 0.168-0.046 0.213-0.115l0.001-0.001 0.402-0.6 0.598 0.402c0.041 0.031 0.094 0.050 0.15 0.050 0.138 0 0.25-0.112 0.25-0.25 0-0.091-0.049-0.171-0.122-0.215l-0.001-0.001-0.6-0.402 0.402-0.6c0.022-0.036 0.035-0.080 0.035-0.127 0-0.138-0.112-0.25-0.25-0.25-0.081 0-0.154 0.039-0.199 0.099l-0 0.001-0.415 0.6-0.6-0.402c-0.041-0.031-0.094-0.050-0.15-0.050-0.138 0-0.25 0.112-0.25 0.25 0 0.091 0.049 0.171 0.122 0.215l0.001 0.001zM18.48 23.683l-3.145 0.62c-0.128 0.013-0.227 0.12-0.227 0.25 0 0.139 0.112 0.251 0.251 0.251 0.008 0 0.017-0 0.025-0.001l-0.001 0h0.047l3.145-0.622c0.118-0.024 0.206-0.127 0.206-0.25 0-0.141-0.114-0.255-0.255-0.255-0.017 0-0.034 0.002-0.050 0.005l0.002-0z"></path>
<path d="M27.668 18.025l-0.22-0.050 0.052-0.225c0.004-0.017 0.006-0.035 0.006-0.055 0-0.141-0.115-0.256-0.256-0.256-0.122 0-0.224 0.085-0.25 0.199l-0 0.002-0.050 0.22-0.22-0.050c-0.017-0.004-0.035-0.006-0.055-0.006-0.141 0-0.256 0.115-0.256 0.256 0 0.122 0.085 0.224 0.199 0.25l0.002 0 0.22 0.050-0.050 0.22c-0.004 0.017-0.006 0.036-0.006 0.056 0 0.118 0.082 0.217 0.192 0.243l0.002 0h0.055c0.002 0 0.004 0 0.006 0 0.119 0 0.218-0.083 0.244-0.193l0-0.002 0.050-0.22 0.22 0.050h0.055c0.008 0.001 0.018 0.002 0.027 0.002 0.139 0 0.252-0.113 0.252-0.252 0-0.129-0.097-0.236-0.223-0.25l-0.001-0zM26.75 4.218c-0.36 0-0.652-0.292-0.652-0.652s0.292-0.652 0.652-0.652c0.36 0 0.652 0.292 0.652 0.652v0c-0.001 0.36-0.293 0.651-0.652 0.652h-0zM26.75 3.41c-0.084 0-0.152 0.068-0.152 0.152s0.068 0.152 0.152 0.152c0.084 0 0.152-0.068 0.152-0.152v0c-0.001-0.083-0.069-0.15-0.152-0.15 0 0 0 0-0 0v0zM4 14.33c-0.36 0-0.652-0.292-0.652-0.652s0.292-0.652 0.652-0.652c0.36 0 0.652 0.292 0.652 0.652v0c-0.001 0.36-0.293 0.651-0.652 0.652h-0zM4 13.523c-0.084 0-0.152 0.068-0.152 0.152s0.068 0.152 0.152 0.152c0.084 0 0.152-0.068 0.152-0.152v0c-0.001-0.083-0.069-0.15-0.152-0.15 0 0 0 0-0 0v0z"></path>
<path d="M22.457 4.963c-0.378-0.14-0.857-0.281-1.347-0.393l-0.086-0.017c-0.302-2.21-2.475-3.917-5.025-3.917h-0.025c-2.565 0-4.692 1.677-5 3.895-0.604 0.127-1.116 0.275-1.614 0.454l0.084-0.026c-2.075 0.75-2.5 1.725-2.5 2.413 0 0.56 0.478 1.065 1.41 1.5 0.313 0.418 1.065 0.773 2.25 1.060 1.51 0.344 3.243 0.541 5.023 0.541 0.087 0 0.174-0 0.26-0.001l-0.013 0h0.14c3.345-0.015 6.87-0.6 7.662-1.668h0.025c0.913-0.445 1.375-0.95 1.372-1.5-0.003-0.915-0.933-1.742-2.617-2.34zM22.030 6.030c0.053-0.035 0.119-0.055 0.189-0.055 0.015 0 0.031 0.001 0.046 0.003l-0.002-0c0.33 0.014 0.638 0.098 0.913 0.236l-0.013-0.006c0.61 0.282 0.885 0.645 0.872 0.75-0.067 0.075-0.523 0.1-1.133-0.183s-0.89-0.655-0.872-0.745zM22.44 5.5c-0.4-0.037-0.735 0.053-0.863 0.33-0.063 0.135-0.115 0.42 0.25 0.8l0.050 0.048c-1.23-0.42-2.96-0.688-5-0.75l0.11-0.035c0.5-0.197 0.582-0.48 0.582-0.633s-0.070-0.435-0.59-0.63c-0.056-0.022-0.129-0.046-0.204-0.066l-0.016-0.004c2.135 0.048 4.080 0.355 5.53 0.87zM15.883 4.955c0.725 0 1.133 0.213 1.18 0.305-0.047 0.093-0.46 0.313-1.195 0.315h-0.018c-0.75 0-1.155-0.225-1.185-0.298 0.030-0.088 0.445-0.317 1.197-0.322zM15.973 1.135h0.027c2.238 0 4.15 1.427 4.5 3.308-1.274-0.248-2.738-0.389-4.236-0.389-0.099 0-0.198 0.001-0.296 0.002l0.015-0c-0.036-0-0.079-0-0.121-0-1.547 0-3.062 0.135-4.535 0.393l0.156-0.023c0.367-1.883 2.242-3.28 4.49-3.29zM9.598 5.43c1.348-0.485 3.185-0.777 5.355-0.855-0.070 0.020-0.137 0.040-0.2 0.065-0.5 0.197-0.582 0.48-0.582 0.633 0 0.322 0.3 0.54 0.707 0.667-1.62 0.027-3.173 0.259-4.652 0.671l0.13-0.031c-0.193 0.060-0.365 0.12-0.527 0.183 0.3-0.287 0.457-0.61 0.325-0.895-0.063-0.135-0.25-0.36-0.768-0.33h-0.092c0.1-0.037 0.207-0.070 0.305-0.107zM8.57 6.275c0.613-0.29 1.072-0.265 1.13-0.195 0.020 0.095-0.25 0.465-0.865 0.75s-1.063 0.265-1.13 0.192c-0.015-0.095 0.258-0.46 0.865-0.747zM7.435 7.447c0.13 0.079 0.288 0.126 0.456 0.126 0.016 0 0.031-0 0.046-0.001l-0.002 0h0.080c0.231-0.017 0.445-0.062 0.648-0.133l-0.018 0.005c-0.235 0.197-0.403 0.469-0.466 0.779l-0.002 0.009c-0.44-0.26-0.697-0.53-0.742-0.785zM15.935 9.607c-1.877 0-3-0.375-3.090-0.557 0.080-0.207 1.232-0.6 3.15-0.607h0.063c1.848 0 2.97 0.363 3.085 0.57-0.113 0.21-1.25 0.588-3.145 0.598zM18.39 9.857l0.075-0.018c0.797-0.2 1.185-0.473 1.183-0.838s-0.39-0.635-1.19-0.828c-0.697-0.16-1.496-0.251-2.318-0.251-0.052 0-0.104 0-0.155 0.001l0.008-0c-1.355 0-3.647 0.25-3.645 1.1 0 0.415 0.543 0.678 1.25 0.84-1.071-0.073-2.061-0.22-3.024-0.44l0.129 0.025c-1.605-0.387-2.035-0.835-2.037-1.040 0-0.5 0.668-1 1.835-1.35 1.34-0.41 3.25-0.633 5.5-0.643h0.135c4.7 0 7.21 1.115 7.213 1.928-0.003 0.522-1.867 1.248-4.947 1.518zM23.813 8.158c-0.074-0.29-0.237-0.535-0.457-0.71l-0.003-0.002c0.105 0.025 0.229 0.044 0.356 0.052l0.007 0h0.067c0.468 0 0.637-0.21 0.695-0.34 0.018-0.039 0.032-0.085 0.040-0.132l0-0.003c0.028 0.079 0.046 0.171 0.047 0.267v0.001c0.012 0.28-0.255 0.582-0.742 0.873z"></path>
</symbol>
<symbol id="icon-ticket" viewBox="0 0 48 32">
<path d="M5.334 0h-5.334v32h5.334zM18.748 0h-5.334v32h5.334zM26.828 0h-5.332v32h5.332zM48 0h-7.92v32h7.92zM10.666 0h-2.586v32h2.586zM32 0h-2.586v32h2.586zM37.334 0h-2.586v32h2.586z"></path>
</symbol>
<symbol id="icon-close" viewBox="0 0 32 32">
<path d="M1.645 32c-0.001 0-0.001 0-0.002 0-0.909 0-1.645-0.737-1.645-1.645 0-0.455 0.185-0.867 0.484-1.165l28.706-28.706c0.301-0.317 0.725-0.515 1.196-0.515 0.91 0 1.647 0.737 1.647 1.647 0 0.47-0.197 0.894-0.512 1.194l-0.001 0.001-28.706 28.706c-0.299 0.298-0.711 0.483-1.167 0.484h-0z"></path>
<path d="M30.355 32c-0 0-0.001 0-0.001 0-0.454 0-0.865-0.185-1.162-0.484l-28.71-28.706c-0.28-0.295-0.452-0.694-0.452-1.133 0-0.91 0.737-1.647 1.647-1.647 0.439 0 0.839 0.172 1.134 0.453l-0.001-0.001 28.706 28.706c0.3 0.298 0.486 0.711 0.486 1.167 0 0.909-0.737 1.645-1.645 1.645v0z"></path>
</symbol>
<symbol id="icon-location" viewBox="0 0 21 32">
<path d="M10.667 0c-5.881 0-10.667 4.988-10.667 11.122 0 7.708 10.677 20.878 10.677 20.878s10.656-13.547 10.656-20.878c0-6.133-4.786-11.122-10.667-11.122zM13.884 14.379c-0.889 0.924-2.052 1.387-3.218 1.387-1.266-0.002-2.408-0.534-3.216-1.385l-0.002-0.002c-1.778-1.849-1.778-4.86 0-6.709 0.809-0.854 1.951-1.385 3.218-1.385s2.409 0.531 3.216 1.383l0.002 0.002c1.778 1.849 1.778 4.86 0 6.709z"></path>
</symbol>
<symbol id="icon-dropdown" viewBox="0 0 52 32">
<path d="M25.98 30l-25.98-30h51.96z"></path>
</symbol>
<symbol id="icon-search" viewBox="0 0 32 32">
<path d="M4.024 4.024c2.473-2.486 5.897-4.024 9.679-4.024 0.012 0 0.025 0 0.037 0h-0.002c3.669 0 7.12 1.429 9.715 4.024 2.487 2.473 4.027 5.898 4.027 9.682 0 0.011 0 0.023-0 0.034v-0.002c0 0.014 0 0.032 0 0.049 0 3.449-1.284 6.598-3.399 8.995l0.013-0.015 7.632 7.629c0.17 0.17 0.275 0.405 0.275 0.664 0 0.519-0.42 0.939-0.939 0.939-0.259 0-0.494-0.105-0.664-0.275l-7.629-7.629c-2.382 2.1-5.528 3.381-8.974 3.381-0.019 0-0.039-0-0.058-0h0.003c-0.010 0-0.021 0-0.033 0-3.783 0-7.206-1.538-9.679-4.023l-0.001-0.001c-2.487-2.474-4.027-5.898-4.027-9.682 0-0.011 0-0.023 0-0.034v0.002c0-3.669 1.429-7.12 4.024-9.715zM5.352 22.128c2.148 2.143 5.113 3.468 8.387 3.468s6.239-1.325 8.387-3.468l-0 0c2.144-2.148 3.469-5.113 3.469-8.388s-1.326-6.24-3.47-8.388l0 0c-2.139-2.143-5.096-3.469-8.363-3.469-0.008 0-0.015 0-0.023 0h0.001c-0.008-0-0.017-0-0.027-0-3.265 0-6.221 1.325-8.36 3.467l-0 0c-2.145 2.148-3.471 5.114-3.471 8.389s1.326 6.241 3.471 8.389l-0-0z"></path>
</symbol>
<symbol id="icon-logo" viewBox="0 0 64 32">
<path d="M19.921 24.083q-0.899-2.5-3.701-2.5h-0.589v10.278h0.589q2.165 0 3.197-1.708 0.868-1.457 0.868-3.708-0.002-1.34-0.365-2.364zM9.807 24.207q0.9 2.499 3.7 2.499h0.589v-10.278h-0.589q-2.165 0-3.197 1.708-0.866 1.457-0.867 3.708 0 1.338 0.363 2.364zM0 0.013h7.842v2.722h-5.028v1.361h4.176v2.583h-4.175v1.376h5.027v2.723h-7.842zM11.785 0h10.146l-5.073 10.997zM16.858 9.636l4.191-9.064h-8.367zM25.984 0.013h7.841v2.722h-5.027v1.361h4.176v2.583h-4.177v1.376h5.027v2.723h-7.842zM38.651 10.762v-10.762h0.603l7.517 7.315v-7.315h0.572v10.765zM55.556 10.778v-8.043h-4.068v-2.722h8.692v2.722h-4.068v8.043zM4.624 18.573q1.021 0 1.624 0.309c0.905 0.449 1.517 1.367 1.517 2.427 0 0.017-0 0.033-0 0.050l0-0.003c0 0.004 0 0.009 0 0.014 0 0.514-0.15 0.993-0.409 1.396l0.006-0.010c-0.272 0.429-0.643 0.773-1.082 1.006l-0.015 0.008c0.572 0.206 1.050 0.559 1.402 1.014l0.005 0.007c0.374 0.464 0.576 1.043 0.572 1.64 0 0.006 0 0.014 0 0.022 0 0.538-0.152 1.041-0.417 1.467l0.007-0.012c-0.27 0.443-0.638 0.801-1.076 1.052l-0.015 0.008c-0.238 0.128-0.493 0.221-0.758 0.278q-0.418 0.093-1.114 0.093h-4.764v-10.765zM22.758 28.557q-1.214-1.060-1.199-3.178h2.522q-0.016 0.881 0.525 1.345t1.516 0.464q0.804 0 1.268-0.262 0.464-0.264 0.464-0.805 0-0.448-0.472-0.65c-0.268-0.119-0.581-0.218-0.907-0.282l-0.028-0.005c0.138 0.016-0.056-0.020-0.251-0.055l-0.321-0.048c-0.789-0.148-1.479-0.345-2.142-0.596l0.085 0.028c-0.579-0.219-1.067-0.563-1.451-1.001l-0.004-0.004q-0.588-0.682-0.588-1.795t0.588-1.894 1.57-1.168c0.619-0.245 1.337-0.387 2.087-0.387 0.019 0 0.039 0 0.058 0l-0.003-0q1.408 0 2.436 0.526 1.029 0.525 1.617 1.593c0.182 0.301 0.303 0.634 0.356 0.982q0.061 0.458 0.061 0.92h-2.52q0-0.835-0.448-1.229-0.449-0.394-1.393-0.394-0.758 0-1.175 0.262t-0.418 0.712q0 0.495 0.557 0.727 0.686 0.271 1.408 0.417 1.392 0.278 2.173 0.534c0.525 0.173 0.992 0.486 1.353 0.905q0.572 0.65 0.572 1.825 0 1.114-0.618 1.917t-1.632 1.23c-0.633 0.269-1.368 0.425-2.14 0.425-0.017 0-0.034-0-0.051-0l0.003 0q-2.242-0.003-3.456-1.062zM36.996 29.338v-8.043h-4.068v-2.722h8.692v2.722h-4.068v8.043zM44.544 18.573h7.841v2.722h-5.027v1.361h4.176v2.583h-4.176v1.376h5.027v2.723h-7.842zM64 29.338h-8.275v-10.765h4.192q1.345 0 2.196 0.48c0.546 0.3 0.987 0.731 1.291 1.252l0.009 0.016c0.31 0.541 0.47 1.155 0.464 1.779 0 0.010 0 0.021 0 0.032 0 0.806-0.28 1.548-0.748 2.131l0.005-0.007c-0.462 0.604-1.105 1.049-1.847 1.255l-0.025 0.006zM56.298 19.516v5.553h3.974zM56.298 28.765h6.62l-2.258-3.14-0.48 0.015h-3.882zM56.7 19.145l4.207 5.878c0.697-0.143 1.29-0.514 1.712-1.031l0.004-0.005c0.423-0.496 0.681-1.145 0.681-1.855 0-0.011-0-0.023-0-0.034l0 0.002c0-0.010 0-0.023 0-0.035 0-0.558-0.155-1.080-0.425-1.524l0.007 0.013c-0.281-0.463-0.682-0.829-1.159-1.060l-0.016-0.007q-0.68-0.34-1.779-0.34z"></path>
</symbol>
</defs>
</svg>
